<svg class="railroad-diagram" width="718" height="270" viewBox="0 0 718 270" xmlns="http://www.w3.org/2000/svg" xmlns:xlink="http://www.w3.org/1999/xlink">
<g transform="translate(.5 .5)">
<g>
<path d="M20 21v20m10 -20v20m-10 -10h20"></path>
</g>
<g>
<path d="M40 31h0"></path>
<path d="M678 31h0"></path>
<path d="M40 31h20"></path>
<g class="non-terminal ">
<path d="M60 31h165.75"></path>
<path d="M492.25 31h165.75"></path>
<rect x="225.75" y="20" width="266.5" height="22"></rect>
<text x="359" y="35">non-metacharacters characters</text>
</g>
<path d="M658 31h20"></path>
<path d="M40 31a10 10 0 0 1 10 10v91a10 10 0 0 0 10 10"></path>
<g>
<path d="M60 142h0"></path>
<path d="M658 142h0"></path>
<g class="terminal ">
<path d="M60 142h0"></path>
<path d="M88.5 142h0"></path>
<rect x="60" y="131" width="28.5" height="22" rx="10" ry="10"></rect>
<text x="74.25" y="146">\</text>
</g>
<path d="M88.5 142h10"></path>
<g>
<path d="M98.5 142h0"></path>
<path d="M658 142h0"></path>
<path d="M98.5 142h20"></path>
<g>
<path d="M118.5 142h0"></path>
<path d="M638 142h0"></path>
<rect x="118.5" y="66" width="519.5" height="104" rx="10" ry="10" class="group-box"></rect>
<g>
<path d="M118.5 142h0"></path>
<path d="M638 142h0"></path>
<path d="M118.5 142a10 10 0 0 0 10 -10v-28a10 10 0 0 1 10 -10"></path>
<g>
<path d="M138.5 94h0"></path>
<path d="M618 94h0"></path>
<path d="M138.5 94a10 10 0 0 0 10 -10v0a10 10 0 0 1 10 -10h381"></path>
<path d="M217 114h381a10 10 0 0 0 10 -10v0a10 10 0 0 1 10 -10"></path>
<path d="M138.5 94h10"></path>
<g class="terminal ">
<path d="M148.5 94h10"></path>
<path d="M187 94h10"></path>
<rect x="158.5" y="83" width="28.5" height="22" rx="10" ry="10"></rect>
<text x="172.75" y="98">\</text>
</g>
<path d="M197 94a10 10 0 0 1 10 10v0a10 10 0 0 0 10 10"></path>
<path d="M197 74a10 10 0 0 1 10 10v0a10 10 0 0 0 10 10"></path>
<g class="terminal ">
<path d="M217 94h10"></path>
<path d="M255.5 94h10"></path>
<rect x="227" y="83" width="28.5" height="22" rx="10" ry="10"></rect>
<text x="241.25" y="98">{</text>
</g>
<path d="M265.5 94a10 10 0 0 1 10 10v0a10 10 0 0 0 10 10"></path>
<path d="M265.5 74a10 10 0 0 1 10 10v0a10 10 0 0 0 10 10"></path>
<g class="terminal ">
<path d="M285.5 94h10"></path>
<path d="M324 94h10"></path>
<rect x="295.5" y="83" width="28.5" height="22" rx="10" ry="10"></rect>
<text x="309.75" y="98">}</text>
</g>
<path d="M334 94a10 10 0 0 1 10 10v0a10 10 0 0 0 10 10"></path>
<path d="M334 74a10 10 0 0 1 10 10v0a10 10 0 0 0 10 10"></path>
<g class="terminal ">
<path d="M354 94h10"></path>
<path d="M392.5 94h10"></path>
<rect x="364" y="83" width="28.5" height="22" rx="10" ry="10"></rect>
<text x="378.25" y="98">&#91;</text>
</g>
<path d="M402.5 94a10 10 0 0 1 10 10v0a10 10 0 0 0 10 10"></path>
<path d="M402.5 74a10 10 0 0 1 10 10v0a10 10 0 0 0 10 10"></path>
<g class="terminal ">
<path d="M422.5 94h10"></path>
<path d="M461 94h10"></path>
<rect x="432.5" y="83" width="28.5" height="22" rx="10" ry="10"></rect>
<text x="446.75" y="98">&#93;</text>
</g>
<path d="M471 94a10 10 0 0 1 10 10v0a10 10 0 0 0 10 10"></path>
<path d="M471 74a10 10 0 0 1 10 10v0a10 10 0 0 0 10 10"></path>
<g class="terminal ">
<path d="M491 94h10"></path>
<path d="M529.5 94h10"></path>
<rect x="501" y="83" width="28.5" height="22" rx="10" ry="10"></rect>
<text x="515.25" y="98">(</text>
</g>
<path d="M539.5 94a10 10 0 0 1 10 10v0a10 10 0 0 0 10 10"></path>
<path d="M539.5 74a10 10 0 0 1 10 10v0a10 10 0 0 0 10 10"></path>
<g class="terminal ">
<path d="M559.5 94h10"></path>
<path d="M598 94h10"></path>
<rect x="569.5" y="83" width="28.5" height="22" rx="10" ry="10"></rect>
<text x="583.75" y="98">)</text>
</g>
<path d="M608 94h10"></path>
</g>
<path d="M618 94a10 10 0 0 1 10 10v28a10 10 0 0 0 10 10"></path>
<path d="M118.5 142h20"></path>
<g>
<path d="M138.5 142h0"></path>
<path d="M618 142h0"></path>
<path d="M138.5 142a10 10 0 0 0 10 -10v0a10 10 0 0 1 10 -10h381"></path>
<path d="M217 162h381a10 10 0 0 0 10 -10v0a10 10 0 0 1 10 -10"></path>
<path d="M138.5 142h10"></path>
<g class="terminal ">
<path d="M148.5 142h10"></path>
<path d="M187 142h10"></path>
<rect x="158.5" y="131" width="28.5" height="22" rx="10" ry="10"></rect>
<text x="172.75" y="146">^</text>
</g>
<path d="M197 142a10 10 0 0 1 10 10v0a10 10 0 0 0 10 10"></path>
<path d="M197 122a10 10 0 0 1 10 10v0a10 10 0 0 0 10 10"></path>
<g class="terminal ">
<path d="M217 142h10"></path>
<path d="M255.5 142h10"></path>
<rect x="227" y="131" width="28.5" height="22" rx="10" ry="10"></rect>
<text x="241.25" y="146">$</text>
</g>
<path d="M265.5 142a10 10 0 0 1 10 10v0a10 10 0 0 0 10 10"></path>
<path d="M265.5 122a10 10 0 0 1 10 10v0a10 10 0 0 0 10 10"></path>
<g class="terminal ">
<path d="M285.5 142h10"></path>
<path d="M324 142h10"></path>
<rect x="295.5" y="131" width="28.5" height="22" rx="10" ry="10"></rect>
<text x="309.75" y="146">.</text>
</g>
<path d="M334 142a10 10 0 0 1 10 10v0a10 10 0 0 0 10 10"></path>
<path d="M334 122a10 10 0 0 1 10 10v0a10 10 0 0 0 10 10"></path>
<g class="terminal ">
<path d="M354 142h10"></path>
<path d="M392.5 142h10"></path>
<rect x="364" y="131" width="28.5" height="22" rx="10" ry="10"></rect>
<text x="378.25" y="146">|</text>
</g>
<path d="M402.5 142a10 10 0 0 1 10 10v0a10 10 0 0 0 10 10"></path>
<path d="M402.5 122a10 10 0 0 1 10 10v0a10 10 0 0 0 10 10"></path>
<g class="terminal ">
<path d="M422.5 142h10"></path>
<path d="M461 142h10"></path>
<rect x="432.5" y="131" width="28.5" height="22" rx="10" ry="10"></rect>
<text x="446.75" y="146">&#42;</text>
</g>
<path d="M471 142a10 10 0 0 1 10 10v0a10 10 0 0 0 10 10"></path>
<path d="M471 122a10 10 0 0 1 10 10v0a10 10 0 0 0 10 10"></path>
<g class="terminal ">
<path d="M491 142h10"></path>
<path d="M529.5 142h10"></path>
<rect x="501" y="131" width="28.5" height="22" rx="10" ry="10"></rect>
<text x="515.25" y="146">+</text>
</g>
<path d="M539.5 142a10 10 0 0 1 10 10v0a10 10 0 0 0 10 10"></path>
<path d="M539.5 122a10 10 0 0 1 10 10v0a10 10 0 0 0 10 10"></path>
<g class="terminal ">
<path d="M559.5 142h10"></path>
<path d="M598 142h10"></path>
<rect x="569.5" y="131" width="28.5" height="22" rx="10" ry="10"></rect>
<text x="583.75" y="146">?</text>
</g>
<path d="M608 142h10"></path>
</g>
<path d="M618 142h20"></path>
</g>
<g class="comment ">
<path d="M118.5 58h0"></path>
<path d="M226.5 58h0"></path>
<text x="172.5" y="63" class="comment">Metacharacters</text>
</g>
</g>
<path d="M638 142h20"></path>
<path d="M98.5 142a10 10 0 0 1 10 10v60a10 10 0 0 0 10 10"></path>
<g>
<path d="M118.5 222h54.25"></path>
<path d="M583.75 222h54.25"></path>
<rect x="172.75" y="194" width="411" height="56" rx="10" ry="10" class="group-box"></rect>
<g>
<path d="M172.75 222h0"></path>
<path d="M583.75 222h0"></path>
<path d="M172.75 222a10 10 0 0 0 10 -10v0a10 10 0 0 1 10 -10h312.5"></path>
<path d="M251.25 242h312.5a10 10 0 0 0 10 -10v0a10 10 0 0 1 10 -10"></path>
<path d="M172.75 222h10"></path>
<g class="terminal ">
<path d="M182.75 222h10"></path>
<path d="M221.25 222h10"></path>
<rect x="192.75" y="211" width="28.5" height="22" rx="10" ry="10"></rect>
<text x="207" y="226">t</text>
</g>
<path d="M231.25 222a10 10 0 0 1 10 10v0a10 10 0 0 0 10 10"></path>
<path d="M231.25 202a10 10 0 0 1 10 10v0a10 10 0 0 0 10 10"></path>
<g class="terminal ">
<path d="M251.25 222h10"></path>
<path d="M289.75 222h10"></path>
<rect x="261.25" y="211" width="28.5" height="22" rx="10" ry="10"></rect>
<text x="275.5" y="226">n</text>
</g>
<path d="M299.75 222a10 10 0 0 1 10 10v0a10 10 0 0 0 10 10"></path>
<path d="M299.75 202a10 10 0 0 1 10 10v0a10 10 0 0 0 10 10"></path>
<g class="terminal ">
<path d="M319.75 222h10"></path>
<path d="M358.25 222h10"></path>
<rect x="329.75" y="211" width="28.5" height="22" rx="10" ry="10"></rect>
<text x="344" y="226">r</text>
</g>
<path d="M368.25 222a10 10 0 0 1 10 10v0a10 10 0 0 0 10 10"></path>
<path d="M368.25 202a10 10 0 0 1 10 10v0a10 10 0 0 0 10 10"></path>
<g class="terminal ">
<path d="M388.25 222h10"></path>
<path d="M426.75 222h10"></path>
<rect x="398.25" y="211" width="28.5" height="22" rx="10" ry="10"></rect>
<text x="412.5" y="226">0</text>
</g>
<path d="M436.75 222a10 10 0 0 1 10 10v0a10 10 0 0 0 10 10"></path>
<path d="M436.75 202a10 10 0 0 1 10 10v0a10 10 0 0 0 10 10"></path>
<g class="terminal ">
<path d="M456.75 222h10"></path>
<path d="M495.25 222h10"></path>
<rect x="466.75" y="211" width="28.5" height="22" rx="10" ry="10"></rect>
<text x="481" y="226">&#60;</text>
</g>
<path d="M505.25 222a10 10 0 0 1 10 10v0a10 10 0 0 0 10 10"></path>
<path d="M505.25 202a10 10 0 0 1 10 10v0a10 10 0 0 0 10 10"></path>
<g class="terminal ">
<path d="M525.25 222h10"></path>
<path d="M563.75 222h10"></path>
<rect x="535.25" y="211" width="28.5" height="22" rx="10" ry="10"></rect>
<text x="549.5" y="226">></text>
</g>
<path d="M573.75 222h10"></path>
</g>
<g class="comment ">
<path d="M172.75 186h0"></path>
<path d="M308.75 186h0"></path>
<text x="240.75" y="191" class="comment">Special characters</text>
</g>
</g>
<path d="M638 222a10 10 0 0 0 10 -10v-60a10 10 0 0 1 10 -10"></path>
</g>
</g>
<path d="M658 142a10 10 0 0 0 10 -10v-91a10 10 0 0 1 10 -10"></path>
</g>
<path d="M 678 31 h 20 m -10 -10 v 20 m 10 -20 v 20"></path>
</g>
<style>
	path {
		stroke-width: 3;
		stroke: black;
		fill: rgba(0,0,0,0);
	}
	text {
		font: bold 14px monospace;
		text-anchor: middle;
		white-space: pre;
	}
	text.diagram-text {
		font-size: 12px;
	}
	text.diagram-arrow {
		font-size: 16px;
	}
	text.label {
		text-anchor: start;
	}
	text.comment {
		font: italic 12px monospace;
	}
	g.non-terminal text {
		/&#42;font-style: italic;&#42;/
	}
	rect {
		stroke-width: 3;
		stroke: black;
		fill: hsl(120,100%,90%);
	}
	rect.group-box {
		stroke: gray;
		stroke-dasharray: 10 5;
		fill: none;
	}
	path.diagram-text {
		stroke-width: 3;
		stroke: black;
		fill: white;
		cursor: help;
	}
	g.diagram-text:hover path.diagram-text {
		fill: #eee;
	}</style>
</svg>
