<svg class="railroad-diagram" width="587" height="100" viewBox="0 0 587 100" xmlns="http://www.w3.org/2000/svg" xmlns:xlink="http://www.w3.org/1999/xlink">
<g transform="translate(.5 .5)">
<g>
<path d="M20 21v20m10 -20v20m-10 -10h20"></path>
</g>
<path d="M40 31h10"></path>
<g>
<path d="M50 31h0"></path>
<path d="M537 31h0"></path>
<g class="terminal ">
<path d="M50 31h0"></path>
<path d="M78.5 31h0"></path>
<rect x="50" y="20" width="28.5" height="22" rx="10" ry="10"></rect>
<text x="64.25" y="35">&#91;</text>
</g>
<path d="M78.5 31h10"></path>
<g>
<path d="M88.5 31h0"></path>
<path d="M157 31h0"></path>
<path d="M88.5 31h20"></path>
<g>
<path d="M108.5 31h28.5"></path>
</g>
<path d="M137 31h20"></path>
<path d="M88.5 31a10 10 0 0 1 10 10v0a10 10 0 0 0 10 10"></path>
<g class="terminal ">
<path d="M108.5 51h0"></path>
<path d="M137 51h0"></path>
<rect x="108.5" y="40" width="28.5" height="22" rx="10" ry="10"></rect>
<text x="122.75" y="55">^</text>
</g>
<path d="M137 51a10 10 0 0 0 10 -10v0a10 10 0 0 1 10 -10"></path>
</g>
<path d="M157 31h10"></path>
<g>
<path d="M167 31h0"></path>
<path d="M488.5 31h0"></path>
<path d="M167 31h10"></path>
<g>
<path d="M177 31h0"></path>
<path d="M478.5 31h0"></path>
<path d="M177 31h20"></path>
<g class="non-terminal ">
<path d="M197 31h82.5"></path>
<path d="M376 31h82.5"></path>
<rect x="279.5" y="20" width="96.5" height="22"></rect>
<text x="327.75" y="35">character</text>
</g>
<path d="M458.5 31h20"></path>
<path d="M177 31a10 10 0 0 1 10 10v10a10 10 0 0 0 10 10"></path>
<g>
<path d="M197 61h0"></path>
<path d="M458.5 61h0"></path>
<g class="non-terminal ">
<path d="M197 61h0"></path>
<path d="M293.5 61h0"></path>
<rect x="197" y="50" width="96.5" height="22"></rect>
<text x="245.25" y="65">character</text>
</g>
<path d="M293.5 61h10"></path>
<path d="M303.5 61h10"></path>
<g class="terminal ">
<path d="M313.5 61h0"></path>
<path d="M342 61h0"></path>
<rect x="313.5" y="50" width="28.5" height="22" rx="10" ry="10"></rect>
<text x="327.75" y="65">-</text>
</g>
<path d="M342 61h10"></path>
<path d="M352 61h10"></path>
<g class="non-terminal ">
<path d="M362 61h0"></path>
<path d="M458.5 61h0"></path>
<rect x="362" y="50" width="96.5" height="22"></rect>
<text x="410.25" y="65">character</text>
</g>
</g>
<path d="M458.5 61a10 10 0 0 0 10 -10v-10a10 10 0 0 1 10 -10"></path>
</g>
<path d="M478.5 31h10"></path>
<path d="M177 31a10 10 0 0 0 -10 10v29a10 10 0 0 0 10 10"></path>
<g>
<path d="M177 80h301.5"></path>
</g>
<path d="M478.5 80a10 10 0 0 0 10 -10v-29a10 10 0 0 0 -10 -10"></path>
</g>
<path d="M488.5 31h10"></path>
<path d="M498.5 31h10"></path>
<g class="terminal ">
<path d="M508.5 31h0"></path>
<path d="M537 31h0"></path>
<rect x="508.5" y="20" width="28.5" height="22" rx="10" ry="10"></rect>
<text x="522.75" y="35">&#93;</text>
</g>
</g>
<path d="M537 31h10"></path>
<path d="M 547 31 h 20 m -10 -10 v 20 m 10 -20 v 20"></path>
</g>
<style>
	path {
		stroke-width: 3;
		stroke: black;
		fill: rgba(0,0,0,0);
	}
	text {
		font: bold 14px monospace;
		text-anchor: middle;
		white-space: pre;
	}
	text.diagram-text {
		font-size: 12px;
	}
	text.diagram-arrow {
		font-size: 16px;
	}
	text.label {
		text-anchor: start;
	}
	text.comment {
		font: italic 12px monospace;
	}
	g.non-terminal text {
		/&#42;font-style: italic;&#42;/
	}
	rect {
		stroke-width: 3;
		stroke: black;
		fill: hsl(120,100%,90%);
	}
	rect.group-box {
		stroke: gray;
		stroke-dasharray: 10 5;
		fill: none;
	}
	path.diagram-text {
		stroke-width: 3;
		stroke: black;
		fill: white;
		cursor: help;
	}
	g.diagram-text:hover path.diagram-text {
		fill: #eee;
	}</style>
</svg>
